<svg xmlns="http://www.w3.org/2000/svg" width="367" height="120" viewBox="0 0 367 120"><g transform="translate(18.5,20) scale(1.25)"><rect x="6" y="16" width="68" height="8" rx="4" fill="#F6F4EE"/><rect x="6" y="30" width="56" height="8" rx="4" fill="#F6F4EE"/><rect x="6" y="44" width="44" height="8" rx="4" fill="#F6F4EE"/><circle cx="88" cy="34" r="11" fill="#E0432B"/></g><path transform="translate(168.00,120.24)" d="M6.895154296875 0.0V-56.94H17.06651806640625V0.0ZM1.4975771484375 -49.264693359375V-56.94H17.06651806640625V-49.264693359375ZM49.14721142578125 1.46640380859375Q43.68721142578126 1.46640380859375 39.61560571289063 -0.4055961914062499Q35.544000000000004 -2.27759619140625 32.89199047851563 -5.405399047851563Q30.239980957031253 -8.533201904296876 28.906173339843754 -12.417605712890627Q27.572365722656254 -16.302009521484376 27.572365722656254 -20.373615234375V-21.84001904296875Q27.572365722656254 -26.02082666015625 28.906173339843754 -29.920831420898438Q30.239980957031253 -33.82083618164062 32.87638952636719 -36.917437133789065Q35.512798095703126 -40.0140380859375 39.48300476074219 -41.8470380859375Q43.45321142578125 -43.6800380859375 48.679211425781254 -43.6800380859375Q55.527615234375006 -43.6800380859375 60.10622570800782 -40.67703332519531Q64.68483618164063 -37.674028564453124 67.00144665527344 -32.86921618652344Q69.31805712890625 -28.06440380859375 69.31805712890625 -22.526384765625V-18.704356201171876H31.909230468750003V-25.131605712890625H62.765990478515626L59.770712402343754 -21.93359619140625Q59.770712402343754 -26.0675771484375 58.53832287597656 -29.023760009765624Q57.305933349609376 -31.97994287109375 54.856755249023436 -33.5867314453125Q52.407577148437504 -35.19352001953125 48.679211425781254 -35.19352001953125Q44.88845141601563 -35.19352001953125 42.30667236328125 -33.46193811035156Q39.724893310546875 -31.730356201171876 38.42230187988281 -28.57917810058594Q37.11971044921875 -25.428 37.11971044921875 -21.075615234375Q37.11971044921875 -16.972836181640623 38.391099975585945 -13.798259033203124Q39.66248950195313 -10.623681884765626 42.330066650390634 -8.821898071289063Q44.99764379882813 -7.0201142578125 49.14721142578125 -7.0201142578125Q53.281163818359374 -7.0201142578125 55.894135253906256 -8.736085693359374Q58.50710668945313 -10.45205712890625 59.19351049804688 -12.870028564453126H68.58485522460938Q67.6956533203125 -8.54882666015625 65.04364855957031 -5.30401904296875Q62.39164379882813 -2.05921142578125 58.35123522949219 -0.29640380859375004Q54.31082666015625 1.46640380859375 49.14721142578125 1.46640380859375ZM96.76555810546876 1.404Q92.28835620117188 1.404 88.55995715332031 -0.23399999999999999Q84.83155810546876 -1.8719999999999999 82.09376000976563 -4.820399047851563Q79.3559619140625 -7.768798095703125 77.86616381835938 -11.7Q76.37636572265626 -15.631201904296875 76.37636572265626 -20.217605712890624V-21.808817138671873Q76.37636572265626 -26.3484228515625 77.81156286621095 -30.295225708007813Q79.24676000976564 -34.24202856445312 81.89095715332033 -37.22162951660156Q84.535154296875 -40.20123046875 88.22455334472656 -41.87823046875Q91.91395239257812 -43.55523046875 96.43795239257813 -43.55523046875Q101.38316381835938 -43.55523046875 105.2051590576172 -41.4414228515625Q109.02715429687501 -39.327615234375 111.32034191894532 -35.05321142578125Q113.61352954101562 -30.7788076171875 113.86312573242188 -24.25801904296875L110.68072192382813 -28.220356201171874V-56.94H120.85208569335938V0.0H112.80235620117188V-18.080375244140626H114.73674096679687Q114.48714477539063 -11.5128076171875 112.02235620117187 -7.16821142578125Q109.55756762695313 -2.823615234375 105.60297143554688 -0.7098076171875001Q101.64837524414062 1.404 96.76555810546876 1.404ZM98.90282666015625 -7.20732568359375Q102.22559619140625 -7.20732568359375 104.95557238769531 -8.704912353515624Q107.68554858398437 -10.2024990234375 109.33913525390625 -13.049475219726563Q110.99272192382813 -15.896451416015625 110.99272192382813 -19.7964228515625V-23.01Q110.99272192382813 -26.831971435546876 109.30013525390626 -29.476149536132812Q107.60754858398438 -32.12032763671875 104.85417333984375 -33.5321162109375Q102.10079809570313 -34.94390478515625 98.85602856445313 -34.94390478515625Q95.2524609375 -34.94390478515625 92.46788378906251 -33.196717163085935Q89.683306640625 -31.449529541015625 88.11551806640625 -28.329553344726563Q86.5477294921875 -25.2095771484375 86.5477294921875 -21.01321142578125Q86.5477294921875 -16.816845703125 88.13891711425782 -13.70467236328125Q89.73010473632813 -10.5924990234375 92.53808093261719 -8.899912353515624Q95.34605712890625 -7.20732568359375 98.90282666015625 -7.20732568359375ZM152.91721142578126 1.46640380859375Q147.45721142578125 1.46640380859375 143.38560571289065 -0.4055961914062499Q139.31400000000002 -2.27759619140625 136.66199047851563 -5.405399047851563Q134.00998095703127 -8.533201904296876 132.67617333984379 -12.417605712890627Q131.34236572265627 -16.302009521484376 131.34236572265627 -20.373615234375V-21.84001904296875Q131.34236572265627 -26.02082666015625 132.67617333984379 -29.920831420898438Q134.00998095703127 -33.82083618164062 136.64638952636722 -36.917437133789065Q139.28279809570313 -40.0140380859375 143.25300476074221 -41.8470380859375Q147.22321142578127 -43.6800380859375 152.44921142578127 -43.6800380859375Q159.297615234375 -43.6800380859375 163.87622570800784 -40.67703332519531Q168.45483618164064 -37.674028564453124 170.77144665527345 -32.86921618652344Q173.08805712890626 -28.06440380859375 173.08805712890626 -22.526384765625V-18.704356201171876H135.67923046875V-25.131605712890625H166.53599047851563L163.54071240234376 -21.93359619140625Q163.54071240234376 -26.0675771484375 162.30832287597656 -29.023760009765624Q161.0759333496094 -31.97994287109375 158.62675524902346 -33.5867314453125Q156.1775771484375 -35.19352001953125 152.44921142578127 -35.19352001953125Q148.65845141601562 -35.19352001953125 146.07667236328126 -33.46193811035156Q143.4948933105469 -31.730356201171876 142.19230187988285 -28.57917810058594Q140.88971044921877 -25.428 140.88971044921877 -21.075615234375Q140.88971044921877 -16.972836181640623 142.16109997558596 -13.798259033203124Q143.43248950195314 -10.623681884765626 146.10006665039066 -8.821898071289063Q148.76764379882815 -7.0201142578125 152.91721142578126 -7.0201142578125Q157.05116381835938 -7.0201142578125 159.66413525390627 -8.736085693359374Q162.27710668945315 -10.45205712890625 162.9635104980469 -12.870028564453126H172.3548552246094Q171.46565332031253 -8.54882666015625 168.81364855957034 -5.30401904296875Q166.16164379882815 -2.05921142578125 162.1212352294922 -0.29640380859375004Q158.08082666015628 1.46640380859375 152.91721142578126 1.46640380859375Z" fill="#F6F4EE"/></svg>